{"title":"Daughters Of Mother India (2015) 1080p WebRip x264 AAC MSubs -DD","uid":15834036,"size":1119823003,"categoryP":"video","categoryS":"hd___movies","magnet":"?xt=urn:btih:44e35cc73f0208f21f58c108f2d985aecec5d078&amp;dn=Daughters+Of+Mother+India+%282015%29+1080p+WebRip+x264+AAC+MSubs+-DD&amp;tr=udp%3A%2F%2Ftracker.leechers-paradise.org%3A6969&amp;tr=udp%3A%2F%2Fzer0day.ch%3A1337&amp;tr=udp%3A%2F%2Fopen.demonii.com%3A1337&amp;tr=udp%3A%2F%2Ftracker.coppersurfer.tk%3A6969&amp;tr=udp%3A%2F%2Fexodus.desync.com%3A6969","seeders":48,"leechers":38,"uploader":"SaM","files":3,"time":1473951613,"description":"1080p WebRip x264\r\n\r\nHindi AAC 2.0 Audio\r\n\r\n\r\n\r\nEnglish &amp; French Subtitles\r\n\r\nAWARDS\r\nNational Film Awards, India 2015\r\nWon\r\nSilver Lotus Award Best Film on Social Issues\r\nVibha Bakshi (producer/director)\r\nV2 Film and Design (production company)\r\n\r\n\r\n\r\n\r\n\r\n{ SCREENSHOTS }\r\n \nhttp://extraimago.com/image/wIv1 \nhttp://extraimago.com/image/wIvc \nhttp://extraimago.com/image/wIv7 \nhttp://extraimago.com/image/wIvb \nhttp://extraimago.com/image/wIvl \nhttp://extraimago.com/image/wIvi \nhttp://extraimago.com/image/wIvm \nhttp://extraimago.com/image/wIvR \nhttp://extraimago.com/image/wIvQ \nhttp://extraimago.com/image/wIvL \nhttp://extraimago.com/image/wIvy \nhttp://extraimago.com/image/wIvq \nhttp://extraimago.com/image/wIvS \nhttp://extraimago.com/image/wIvO \nhttp://extraimago.com/image/wIvE\r\n\r\nSpecs:\r\nSource: Netflix HD Rip @ DDR\r\n\r\nFormat : Matroska\r\nFile size : 1.01 GiB\r\nDuration : 44 min\r\nOverall bit rate : 3 232 kb/s\r\n\r\nVideo\r\nID : 1\r\nFormat : AVC\r\nFormat/Info : Advanced Video Codec\r\nFormat profile :   \r\nFormat settings, CABAC : Yes\r\nFormat settings, ReFrames : 4 frames\r\nCodec ID : V_MPEG4/ISO/AVC\r\nDuration : 44 min\r\nBit rate : 3 008 kb/s\r\nWidth : 1 920 pixels\r\nHeight : 1 080 pixels\r\nDisplay aspect ratio : 16:9\r\nFrame rate mode : Constant\r\nFrame rate : 30.000 FPS\r\nColor space : YUV\r\nChroma subsampling : 4:2:0\r\nBit depth : 8 bits\r\nScan type : Progressive\r\nBits/(Pixel*Frame) : 0.048\r\nStream size : 965 MiB (93%)\r\nLanguage : English\r\nDefault : Yes\r\nForced : No\r\nColor range : Limited\r\nColor primaries : BT.709\r\nTransfer characteristics : BT.709\r\nMatrix coefficients : BT.709\r\n\r\nAudio\r\nID : 2\r\nFormat : AAC\r\nFormat/Info : Advanced Audio Codec\r\nFormat profile : LC\r\nCodec ID : A_AAC\r\nDuration : 44 min\r\nBit rate : 221 kb/s\r\nChannel(s) : 2 channels\r\nChannel positions : Front: L R\r\nSampling rate : 48.0 kHz\r\nFrame rate : 46.875 FPS (1024 spf)\r\nCompression mode : Lossy\r\nDelay relative to video : 13 ms\r\nStream size : 71.1 MiB (7%)\r\nLanguage : Hindi\r\nDefault : Yes\r\nForced : No","torrent":{"xt":"urn:btih:44e35cc73f0208f21f58c108f2d985aecec5d078","amp;dn":"Daughters+Of+Mother+India+%282015%29+1080p+WebRip+x264+AAC+MSubs+-DD","amp;tr":["udp%3A%2F%2Ftracker.leechers-paradise.org%3A6969","udp%3A%2F%2Fzer0day.ch%3A1337","udp%3A%2F%2Fopen.demonii.com%3A1337","udp%3A%2F%2Ftracker.coppersurfer.tk%3A6969","udp%3A%2F%2Fexodus.desync.com%3A6969"],"infoHash":"44e35cc73f0208f21f58c108f2d985aecec5d078","infoHashBuffer":{"type":"Buffer","data":[68,227,92,199,63,2,8,242,31,88,193,8,242,217,133,174,206,197,208,120]},"announce":[],"urlList":[]}}